<?xml version="1.0" standalone="no"?>
<!DOCTYPE svg PUBLIC "-//W3C//DTD SVG 20010904//EN"
 "http://www.w3.org/TR/2001/REC-SVG-20010904/DTD/svg10.dtd">
<svg version="1.0" xmlns="http://www.w3.org/2000/svg"
 width="817.000000pt" height="798.000000pt" viewBox="0 0 817.000000 798.000000"
 preserveAspectRatio="xMidYMid meet">

<g transform="translate(0.000000,798.000000) scale(0.100000,-0.100000)"
fill="#000000" stroke="none">
<path d="M3586 7888 c4 -51 11 -99 17 -105 12 -16 133 -18 142 -2 4 6 9 38 11
72 3 34 6 76 7 92 2 26 -2 30 -26 33 -51 6 -55 0 -45 -62 11 -65 4 -106 -17
-106 -24 0 -34 41 -24 96 12 64 7 74 -36 74 l-36 0 7 -92z"/>
<path d="M3814 7870 l0 -110 40 0 39 0 -6 40 c-6 49 3 51 27 6 15 -28 25 -35
58 -38 21 -2 41 -2 43 0 2 2 -1 18 -6 35 -6 18 -7 65 -4 105 l7 72 -42 0 -43
0 7 -40 c3 -22 4 -40 1 -40 -2 0 -17 18 -31 40 -22 33 -32 40 -58 40 l-32 0 0
-110z"/>
<path d="M4055 7970 c-4 -6 -1 -33 6 -60 10 -39 10 -57 0 -91 -8 -25 -9 -45
-3 -51 5 -5 42 -8 83 -6 72 3 74 4 77 31 3 23 0 27 -20 27 -13 0 -29 -4 -37
-9 -20 -13 -41 -2 -41 21 0 18 4 19 36 14 34 -7 35 -6 32 21 -2 24 -8 28 -36
31 -54 5 -33 28 22 24 47 -3 47 -3 44 25 -3 28 -4 28 -80 31 -47 2 -79 -1 -83
-8z"/>
<path d="M4267 7962 c-21 -23 -22 -79 -1 -99 8 -9 30 -16 47 -17 23 -1 33 -6
35 -20 3 -15 0 -17 -14 -11 -11 4 -34 10 -52 13 -31 4 -33 2 -30 -19 4 -28 40
-49 89 -49 48 0 69 18 76 67 6 46 -4 56 -70 68 -21 4 -37 13 -37 21 0 18 16
18 50 -2 28 -17 60 -14 60 6 0 6 -11 22 -25 35 -31 32 -103 35 -128 7z"/>
<path d="M4465 7865 l0 -106 39 3 c28 2 40 8 42 20 1 10 -2 20 -7 24 -22 13
-8 34 24 34 41 0 67 26 67 67 0 47 -26 63 -101 63 l-64 0 0 -105z m105 40 c0
-8 -9 -15 -20 -15 -11 0 -20 7 -20 15 0 8 9 15 20 15 11 0 20 -7 20 -15z"/>
<path d="M3925 7613 c-103 -36 -182 -83 -255 -155 -187 -181 -275 -430 -335
-943 -14 -121 -28 -233 -31 -250 -9 -49 -35 -125 -43 -125 -4 0 -15 14 -25 32
-11 17 -47 62 -81 99 -72 78 -105 148 -156 332 l-32 117 -48 0 c-67 0 -144
-18 -172 -40 -24 -19 -24 -19 -10 -92 8 -40 17 -122 20 -183 5 -114 6 -107
-65 -400 l-8 -30 -51 65 c-52 66 -66 76 -272 198 -136 80 -186 123 -237 199
-99 153 -148 212 -175 213 -31 0 -153 -60 -200 -99 -28 -24 -31 -31 -25 -62 3
-18 27 -65 52 -104 103 -159 133 -245 164 -477 24 -185 49 -252 149 -393 43
-61 93 -137 111 -168 l32 -57 -84 0 c-97 0 -495 22 -923 50 -686 46 -861 50
-979 25 -93 -20 -122 -39 -178 -120 -38 -55 -48 -78 -48 -110 0 -130 131 -400
294 -610 146 -186 441 -423 682 -547 407 -210 868 -303 1774 -358 96 -6 207
-13 246 -16 l71 -5 6 -127 c6 -142 19 -190 85 -303 26 -43 41 -85 46 -120 4
-30 20 -99 36 -154 46 -161 46 -159 8 -189 -47 -35 -117 -66 -155 -66 -20 0
-43 10 -62 26 -25 20 -31 22 -31 10 0 -30 27 -83 51 -100 28 -19 128 -22 195
-5 25 6 48 9 51 5 4 -4 13 -53 19 -109 7 -57 23 -129 34 -161 40 -106 185
-228 386 -323 285 -135 573 -120 844 41 111 66 237 170 270 222 33 53 56 144
66 262 4 45 11 85 15 88 5 3 47 -7 94 -22 132 -41 188 -25 236 68 26 51 24 56
-11 23 -30 -29 -31 -29 -94 -18 -46 8 -81 22 -130 54 -66 44 -66 44 -63 85 7
70 77 306 108 364 17 30 47 89 67 130 l37 75 0 135 c0 74 4 141 8 148 5 7 29
12 57 12 102 0 573 45 895 86 511 65 825 125 1066 205 131 43 339 145 434 213
360 258 566 699 441 944 -49 95 -158 167 -301 197 -151 31 -521 28 -1205 -10
-146 -8 -357 -18 -468 -21 l-204 -7 25 49 c14 27 60 99 104 159 141 197 158
236 179 414 28 233 71 365 166 505 49 71 65 121 47 143 -7 8 -50 40 -96 70
-46 30 -83 59 -83 64 0 12 68 -23 132 -66 44 -31 115 -62 122 -53 2 1 6 24 8
49 5 43 3 46 -31 69 -120 79 -144 90 -203 90 -67 0 -80 -13 -52 -55 9 -14 15
-27 13 -28 -2 -1 -20 -10 -39 -18 -27 -13 -44 -33 -75 -90 -74 -135 -211 -259
-415 -375 -100 -56 -157 -104 -201 -169 -26 -38 -39 -44 -39 -17 0 9 -16 82
-35 162 -42 174 -45 265 -14 407 19 87 19 97 5 105 -14 8 -12 13 14 34 36 31
36 34 7 66 -17 19 -44 28 -115 42 l-93 18 -25 -23 c-13 -12 -24 -26 -24 -30 0
-14 42 -32 105 -45 l60 -13 -73 3 c-71 3 -73 3 -87 -24 -8 -15 -25 -74 -38
-133 -29 -125 -50 -169 -129 -274 -33 -43 -64 -85 -69 -93 -8 -13 -10 -13 -19
0 -16 24 -47 135 -75 275 -40 200 -102 444 -136 542 -137 392 -351 594 -654
617 -71 6 -89 4 -160 -21z m270 -40 c82 -26 126 -52 193 -117 147 -141 289
-426 336 -676 20 -103 21 -146 4 -133 -20 16 -127 50 -218 70 -70 15 -131 18
-340 18 -283 0 -389 -12 -598 -66 -64 -17 -126 -33 -138 -36 -20 -5 -19 2 22
199 72 341 141 489 293 631 130 120 288 159 446 110z m28 -971 c31 -78 115
-205 137 -209 11 -2 29 33 63 126 l49 129 71 -20 c93 -25 180 -64 205 -92 11
-11 26 -41 32 -66 11 -41 39 -230 34 -230 -1 0 -34 48 -73 108 -89 133 -88
132 -110 132 -19 0 -53 -62 -115 -212 -48 -116 -121 -269 -139 -292 -14 -19
-16 -18 -37 23 -12 24 -42 96 -67 160 -55 142 -102 232 -151 289 -35 41 -39
43 -64 32 -39 -18 -122 -176 -193 -368 -33 -89 -62 -162 -65 -162 -11 0 -67
107 -143 275 -43 94 -87 181 -97 195 l-20 25 -20 -25 c-12 -14 -55 -94 -97
-178 -41 -83 -78 -154 -83 -157 -4 -2 -1 28 5 68 7 40 23 145 36 234 l23 161
117 30 116 29 36 -88 c37 -90 81 -169 95 -169 4 0 40 65 79 144 l72 144 53 11
c64 13 107 17 173 19 l50 2 28 -68z m1131 -77 c-20 -135 -18 -218 11 -326 49
-184 43 -286 -26 -434 -41 -89 -47 -69 -24 76 13 79 16 135 11 211 -16 267
-18 369 -7 434 12 65 37 141 45 133 2 -2 -2 -44 -10 -94z m-2515 30 c20 -70
25 -259 11 -423 -11 -137 -10 -171 4 -272 9 -63 16 -125 16 -139 0 -24 0 -24
-20 -6 -31 28 -61 139 -67 245 -5 79 -1 119 22 234 28 141 30 217 9 376 -7 54
9 45 25 -15z m-945 -147 c100 -162 148 -285 205 -533 28 -118 60 -184 166
-340 98 -143 158 -245 151 -253 -10 -10 -67 21 -90 49 -43 51 -238 379 -269
452 -24 59 -31 93 -38 188 -11 158 -39 237 -148 424 -43 72 -47 85 -32 85 5 0
30 -33 55 -72z m4410 -5 c-64 -109 -110 -202 -123 -248 -5 -22 -18 -101 -27
-175 -9 -74 -22 -150 -30 -167 -12 -31 -291 -501 -317 -534 -15 -19 -67 -34
-67 -19 0 19 30 69 141 238 156 233 157 238 219 489 44 183 118 352 197 451
54 66 57 49 7 -35z m-2128 -148 c35 -71 82 -183 106 -248 38 -109 69 -170 81
-157 2 3 55 113 117 245 63 132 125 255 138 273 l25 33 26 -53 c15 -29 50 -87
78 -128 70 -105 102 -172 119 -249 7 -36 14 -70 14 -75 0 -18 -33 20 -91 103
-81 118 -123 166 -138 157 -24 -15 -173 -338 -205 -447 -11 -37 -12 -49 -3
-46 7 2 46 84 88 183 82 195 115 264 127 264 12 0 101 -109 149 -183 60 -92
99 -177 123 -271 23 -89 25 -116 9 -116 -25 0 -109 105 -163 203 -38 70 -62
104 -71 101 -17 -7 -39 -52 -75 -157 l-28 -82 -39 3 c-21 2 -65 7 -98 13 -33
5 -83 9 -111 9 l-51 0 -48 123 c-56 144 -146 330 -179 371 l-23 29 -16 -33
c-19 -37 -15 -49 8 -30 21 17 29 5 99 -135 43 -86 126 -298 126 -321 0 -8 -37
-4 -67 7 -25 8 -35 21 -52 69 -19 53 -70 120 -90 120 -4 0 -15 -37 -25 -82
-23 -110 -36 -128 -86 -128 -27 0 -40 4 -40 13 0 19 85 343 104 395 11 30 12
42 4 40 -16 -6 -42 -87 -74 -226 -14 -65 -35 -142 -47 -172 -21 -52 -24 -55
-59 -58 l-37 -3 -41 81 c-23 45 -43 80 -45 78 -3 -2 7 -37 20 -77 14 -40 25
-77 25 -81 0 -4 -19 -10 -42 -13 -40 -4 -46 -2 -78 33 -20 21 -58 77 -84 124
-27 47 -52 86 -57 86 -17 0 -67 -88 -114 -198 -51 -119 -65 -136 -127 -147
l-37 -7 10 38 c6 22 32 86 59 144 50 109 68 170 52 170 -5 0 -21 -27 -36 -60
-44 -97 -45 -72 -4 60 26 82 79 209 158 375 34 72 66 141 72 155 9 24 10 24
38 -25 15 -28 49 -111 75 -185 26 -74 60 -162 76 -195 28 -56 76 -122 83 -114
14 16 40 82 69 181 38 125 50 150 135 301 l55 98 25 -23 c13 -13 53 -81 88
-153z m324 -730 c141 -19 472 -83 482 -93 3 -4 18 -49 31 -99 l26 -93 -112 0
c-264 0 -1762 22 -1766 25 -8 9 23 127 38 145 27 31 340 98 586 126 160 17
548 12 715 -11z m-3805 -245 c1422 -89 2226 -114 3760 -114 1231 0 1602 6
2230 41 177 9 471 17 716 17 l416 1 79 -40 c85 -44 135 -96 153 -162 11 -39 6
-60 -5 -27 -27 75 -138 151 -260 180 -96 22 -311 20 -499 -5 -613 -82 -1372
-111 -2875 -111 -1586 0 -3160 45 -3745 106 -186 20 -346 22 -405 5 -25 -7
-69 -28 -97 -47 -29 -19 -56 -34 -59 -34 -10 0 6 71 23 103 18 36 98 74 179
86 81 12 212 12 389 1z m-20 -135 c304 -47 672 -78 1365 -114 767 -41 1209
-52 2027 -49 413 2 754 0 758 -3 4 -5 -164 -277 -191 -308 -2 -2 -56 47 -121
109 -65 62 -142 129 -172 149 l-53 35 -27 -30 c-15 -17 -58 -81 -95 -142 -37
-61 -72 -114 -77 -118 -6 -3 -66 51 -133 122 -68 71 -135 135 -149 143 -24 13
-27 12 -51 -15 -15 -16 -43 -56 -63 -89 -20 -33 -54 -86 -76 -118 -46 -70 -41
-72 -138 64 -66 91 -138 169 -158 169 -15 0 -65 -63 -134 -167 -101 -153 -87
-151 -198 -27 -52 58 -121 127 -153 154 l-59 49 -33 -27 c-17 -15 -70 -70
-116 -122 -103 -115 -124 -134 -137 -125 -6 3 -56 66 -111 140 -55 73 -114
143 -131 155 l-31 22 -35 -33 c-19 -19 -62 -72 -96 -119 -73 -102 -136 -180
-146 -180 -4 0 -41 42 -82 92 -84 105 -232 258 -248 258 -6 0 -57 -70 -113
-156 l-102 -157 -35 40 c-20 22 -69 77 -110 122 -91 102 -175 168 -194 153 -7
-6 -41 -67 -75 -134 -34 -68 -72 -136 -85 -152 l-24 -30 -40 35 c-23 18 -85
74 -139 123 -113 102 -201 164 -213 150 -27 -31 -69 -213 -87 -379 l-7 -70
-51 57 c-110 124 -204 306 -193 375 22 132 241 192 532 148z m7085 -60 c148
-31 227 -100 249 -220 20 -109 -42 -286 -133 -374 l-46 -45 26 90 c77 271 99
394 72 394 -22 0 -95 -50 -187 -128 -89 -76 -151 -112 -192 -112 -24 0 -26 4
-38 92 -7 50 -20 114 -28 142 -16 53 -59 146 -69 146 -14 0 -114 -104 -167
-175 -34 -44 -76 -94 -95 -112 l-34 -32 -39 57 c-21 31 -70 95 -108 142 -39
46 -71 88 -71 91 0 8 41 14 255 34 88 8 174 16 190 18 88 11 349 6 415 -8z
m-946 -97 c-36 -71 -110 -187 -142 -221 l-26 -27 -34 32 c-19 18 -61 66 -94
106 -55 66 -129 132 -148 132 -5 0 -50 -67 -100 -150 -51 -82 -96 -150 -99
-150 -18 0 -97 64 -186 150 -90 87 -147 130 -173 130 -9 0 -174 -258 -187
-293 -13 -33 -34 -17 -112 85 -77 101 -147 178 -161 178 -4 0 -45 -57 -92
-127 -86 -128 -106 -153 -119 -153 -3 0 -15 15 -26 32 -10 18 -66 81 -123 141
-57 59 -103 110 -100 112 4 4 401 21 1048 45 168 7 438 17 600 24 162 6 296
11 298 10 2 -1 -9 -26 -24 -56z m466 -368 c128 -24 245 -102 289 -193 43 -90
19 -197 -56 -248 -68 -47 -201 -105 -362 -159 -154 -50 -361 -103 -361 -90 0
14 36 37 83 55 51 19 127 69 127 84 0 15 -91 48 -175 64 -222 43 -457 64 -990
89 -358 16 -1818 17 -2130 0 -765 -40 -896 -51 -1655 -136 -556 -63 -624 -72
-651 -86 -18 -10 -18 -13 -3 -41 l16 -31 -34 7 c-116 23 -261 86 -427 184
-161 96 -403 267 -419 296 -12 23 -10 26 35 48 27 13 73 33 103 43 63 22 -112
20 1722 16 1157 -2 1634 3 2533 28 406 11 1056 35 1400 50 582 26 682 31 705
34 35 5 195 -4 250 -14z m-2691 -476 c90 -8 193 -21 229 -29 131 -31 231 -106
247 -188 13 -65 15 -68 36 -57 18 10 19 6 19 -137 1 -146 13 -230 38 -255 19
-19 14 -102 -9 -164 -31 -82 -89 -137 -173 -163 -106 -33 -120 -44 -96 -81 8
-13 12 -12 25 8 22 30 38 18 30 -21 -6 -29 -4 -28 17 12 15 29 34 49 57 58 18
8 35 12 37 10 6 -6 -100 -316 -108 -317 -12 0 -112 66 -127 84 -18 22 -8 84
25 148 l26 51 -29 -8 -28 -7 25 27 c33 36 65 51 125 60 65 9 102 29 125 68 30
48 25 63 -10 33 -17 -14 -47 -28 -68 -31 -49 -8 -115 -23 -137 -31 -17 -7 -17
-6 0 20 28 42 13 40 -52 -8 -65 -47 -163 -180 -163 -219 0 -12 -5 -29 -10 -37
-8 -12 -10 -11 -10 7 0 12 -4 24 -9 28 -6 3 -59 7 -118 8 l-108 3 -16 59 c-8
33 -27 86 -42 119 -15 32 -27 61 -27 63 0 9 -87 139 -101 149 -8 6 -30 14 -49
18 l-35 6 23 -18 24 -18 -39 -12 c-21 -6 -54 -25 -73 -41 -62 -51 -120 -182
-120 -272 0 -43 -10 -49 -78 -49 -26 0 -78 -7 -116 -15 -38 -8 -73 -12 -78 -9
-5 3 -16 0 -25 -8 -11 -9 -17 -10 -20 -2 -2 6 -10 20 -18 30 -13 17 -14 16 -8
-18 5 -37 -1 -45 -23 -30 -5 4 -26 37 -46 73 -20 37 -60 89 -88 115 -56 53
-127 84 -136 59 -3 -7 -19 -19 -35 -26 -28 -11 -33 -10 -54 12 -13 13 -42 57
-65 97 l-41 73 20 82 c45 189 54 249 47 340 -6 81 -5 90 14 105 11 9 30 37 43
62 40 80 154 132 377 171 215 38 637 43 979 13z m-1290 -1029 c16 -14 33 -36
37 -48 8 -27 93 -147 103 -147 11 0 -6 101 -19 114 -12 12 -13 36 -2 36 5 0
21 -39 36 -87 l26 -88 -61 -57 c-34 -32 -67 -58 -74 -58 -8 0 -16 29 -23 81
-6 45 -15 85 -20 88 -29 18 -77 162 -63 189 5 9 34 -2 60 -23z m899 -140 c30
-38 28 -60 -8 -85 l-30 -22 -45 49 c-51 55 -54 63 -22 63 36 0 47 13 53 66 9
78 17 84 24 18 4 -40 14 -71 28 -89z m564 123 c-5 -7 -17 -35 -25 -63 -12 -42
-18 -51 -40 -53 -22 -3 -25 0 -22 18 5 24 85 124 93 116 3 -3 0 -11 -6 -18z
m-1040 -366 c-28 -3 -31 -6 -21 -18 16 -19 4 -18 -15 2 -25 24 -19 30 27 25
40 -5 40 -6 9 -9z m97 -24 c-1 -16 -3 -18 -6 -6 -2 9 -16 19 -31 21 -24 4 -24
4 6 6 27 1 32 -2 31 -21z m357 0 c-3 -13 -6 -29 -6 -36 0 -9 -7 -11 -22 -6
-33 10 -34 12 -8 39 29 31 44 32 36 3z m503 -49 c23 -65 7 -124 -26 -103 -14
9 -19 27 -21 83 -3 69 -2 72 16 62 11 -6 25 -25 31 -42z m203 -97 l6 -97 -71
-95 c-75 -102 -77 -100 -23 31 20 47 38 101 41 120 3 21 -4 10 -18 -31 -48
-130 -97 -241 -126 -284 -17 -25 -35 -55 -40 -68 -6 -15 -38 -40 -90 -68 -45
-25 -104 -62 -132 -82 -28 -21 -74 -45 -102 -53 -67 -20 -315 -21 -379 -1 -49
14 -120 59 -181 113 -30 27 -45 33 -81 33 -56 0 -122 35 -105 56 9 11 15 11
35 -3 14 -9 27 -13 30 -10 3 3 -3 10 -13 16 -19 10 -35 42 -68 133 -10 28 -28
56 -45 68 -44 31 -49 24 -7 -11 20 -17 37 -36 37 -42 0 -7 11 -38 24 -69 22
-55 23 -58 6 -73 -16 -15 -21 -15 -47 -2 -42 22 -69 56 -98 120 l-25 58 22
-12 c13 -6 38 -28 56 -47 34 -36 51 -38 33 -4 -6 12 -11 29 -11 39 -1 20 -48
78 -57 70 -3 -4 6 -20 21 -37 42 -51 29 -59 -14 -10 -61 70 -70 96 -70 204 l0
95 30 16 29 15 26 -55 c16 -33 43 -68 68 -88 22 -17 61 -53 87 -78 35 -35 60
-49 107 -62 34 -10 65 -17 70 -15 4 1 23 -6 41 -16 22 -11 43 -15 63 -11 22 5
31 3 36 -10 5 -15 15 -16 58 -11 37 4 57 2 71 -9 22 -16 120 -20 129 -5 3 6
29 10 57 10 l51 0 -21 23 c-26 27 -28 57 -7 97 32 63 80 18 56 -51 -6 -18 -11
-33 -11 -34 0 -1 19 -5 42 -8 35 -5 47 -1 71 19 22 19 32 22 42 14 10 -8 26
-7 60 4 25 9 54 16 65 16 12 0 22 11 30 35 13 40 93 123 133 137 22 8 27 15
26 41 -2 29 -2 30 -6 5 -3 -17 -14 -30 -34 -38 -16 -7 -32 -10 -35 -7 -4 3 15
40 41 81 l47 76 33 -25 c32 -25 32 -27 37 -123z m-1217 117 c4 -12 2 -26 -4
-32 -6 -6 -11 -28 -11 -49 0 -39 -8 -45 -40 -28 -16 8 -17 15 -9 42 5 18 9 45
9 60 0 23 4 28 24 28 16 0 27 -7 31 -21z m-129 -71 c13 -37 22 -48 38 -48 36
0 47 -14 40 -48 -4 -18 -9 -32 -12 -32 -18 0 -77 59 -102 103 -34 60 -37 82
-12 96 19 11 17 13 48 -71z m232 66 c20 2 27 1 15 -1 -21 -4 -23 -10 -23 -79
0 -68 -2 -74 -21 -74 -38 0 -59 19 -59 53 0 36 40 129 47 110 3 -8 18 -12 41
-9z m132 -5 c0 -5 -4 -9 -10 -9 -5 0 -10 7 -10 16 0 8 5 12 10 9 6 -3 10 -10
10 -16z m674 -1 c8 -13 17 -44 21 -69 6 -41 4 -48 -16 -63 -36 -25 -46 -20
-53 29 -7 44 9 125 25 125 5 0 15 -10 23 -22z m-98 -34 c17 -41 18 -96 2 -112
-34 -34 -74 5 -63 61 20 101 35 113 61 51z m-621 6 c16 -30 20 -87 7 -106 -4
-6 -17 -16 -29 -23 -19 -10 -24 -8 -34 10 -14 27 -6 92 15 124 21 31 22 31 41
-5z m129 8 c11 -15 16 -45 16 -89 l0 -66 -37 -6 c-20 -4 -39 -5 -40 -3 -10 10
-15 82 -9 130 7 50 10 56 31 56 13 0 31 -10 39 -22z m136 -44 c11 -39 11 -53
-1 -88 -13 -37 -18 -41 -51 -44 -31 -3 -38 0 -38 15 0 35 21 146 31 165 16 29
44 6 59 -48z m105 42 c21 -32 31 -126 16 -154 -16 -29 -47 -28 -67 3 -13 20
-15 38 -10 81 11 91 32 115 61 70z m147 -21 c4 -22 4 -61 1 -87 -5 -42 -9 -48
-29 -48 -12 0 -30 7 -38 16 -18 17 -19 33 -9 112 6 52 6 53 37 50 27 -3 32 -7
38 -43z m535 -17 c-3 -8 -6 -5 -6 6 -1 11 2 17 5 13 3 -3 4 -12 1 -19z m-199
-75 c-4 -22 -22 -20 -26 1 -2 10 3 16 13 16 10 0 15 -7 13 -17z m-72 -65 c-9
-46 -21 -62 -41 -54 -20 7 -14 44 12 85 20 31 38 13 29 -31z m-954 25 c18 -17
25 -68 9 -77 -13 -8 -40 27 -47 62 -7 37 8 43 38 15z m108 -64 c0 -63 -3 -65
-42 -31 -21 17 -24 78 -5 85 40 17 47 9 47 -54z m770 19 c0 -17 -10 -39 -25
-53 -38 -39 -48 -32 -40 28 9 65 9 65 40 59 20 -3 25 -10 25 -34z m-126 22
c32 -12 33 -31 4 -81 -24 -44 -34 -48 -43 -19 -6 18 3 110 10 110 2 0 15 -4
29 -10z m-541 -62 c3 -35 4 -65 1 -67 -7 -8 -74 71 -74 88 0 23 20 41 46 41
19 0 22 -7 27 -62z m117 13 c0 -21 3 -52 6 -68 14 -69 -66 -34 -87 38 -7 21
-9 42 -6 45 5 5 55 20 80 23 4 1 7 -16 7 -38z m98 19 c20 0 22 -4 22 -60 0
-49 -3 -61 -20 -70 -11 -6 -24 -9 -29 -6 -17 11 -41 75 -41 111 0 34 2 37 23
31 12 -3 32 -6 45 -6z m138 -47 c-5 -45 -40 -93 -65 -93 -12 0 -21 38 -21 93
l0 47 46 0 47 0 -7 -47z m641 25 c-3 -8 -6 -5 -6 6 -1 11 2 17 5 13 3 -3 4
-12 1 -19z m-7 -22 c0 -2 -8 -10 -17 -17 -16 -13 -17 -12 -4 4 13 16 21 21 21
13z m0 -109 c0 -2 -10 -12 -22 -23 l-23 -19 19 23 c18 21 26 27 26 19z m-59
-86 c-10 -18 -100 -81 -117 -81 -4 0 17 16 48 35 31 19 59 42 62 50 3 8 8 15
11 15 3 0 1 -8 -4 -19z"/>
<path d="M3490 6111 c-15 -29 -13 -31 25 -31 38 0 42 6 21 33 -17 22 -33 22
-46 -2z"/>
<path d="M3606 4044 c-36 -12 -46 -18 -37 -27 19 -19 13 -24 -33 -30 -54 -8
-126 -36 -126 -49 0 -6 13 -8 33 -5 28 5 30 5 12 -6 -26 -15 -150 -141 -171
-171 -21 -33 -29 -152 -14 -214 6 -29 25 -69 41 -91 34 -47 117 -100 128 -82
6 9 18 9 52 0 24 -6 67 -13 94 -16 l50 -4 -25 21 c-17 15 -19 20 -7 16 26 -8
21 21 -5 35 -25 13 -38 28 -38 45 0 7 40 17 103 24 119 15 147 27 177 75 12
19 30 40 41 45 18 10 19 7 17 -42 -1 -50 -2 -51 -5 -10 -2 23 -8 42 -13 42 -4
0 -18 -16 -31 -36 -23 -38 -72 -74 -100 -74 -9 0 -19 -7 -23 -15 -6 -16 0 -16
83 6 19 5 36 7 38 5 2 -2 -6 -15 -18 -30 -27 -35 -21 -40 24 -21 43 18 50 19
42 5 -8 -12 15 -13 34 -1 8 5 12 19 9 34 -3 15 -1 25 5 24 17 -3 46 88 57 181
l11 87 -44 96 c-46 98 -87 145 -143 166 -106 38 -140 41 -218 17z m111 0 c-3
-3 -12 -4 -19 -1 -8 3 -5 6 6 6 11 1 17 -2 13 -5z m-7 -34 c11 -7 -3 -9 -45
-8 -56 1 -58 1 -20 8 22 4 42 8 45 8 3 1 12 -3 20 -8z"/>
<path d="M4445 4020 c-22 -10 -46 -19 -54 -19 -23 -2 -70 -64 -86 -114 -8 -26
-17 -91 -20 -145 -5 -79 -3 -110 13 -163 24 -84 82 -163 82 -112 0 15 1 15 18
0 23 -21 43 -22 36 -2 -4 8 -12 15 -20 15 -12 0 -32 66 -22 75 3 3 17 -8 31
-25 29 -32 26 -41 -4 -14 -16 15 -17 14 -12 -5 3 -12 15 -23 27 -26 68 -15
126 -21 126 -14 0 13 -79 51 -90 44 -6 -3 -10 1 -10 10 0 13 8 11 48 -9 31
-15 74 -26 126 -31 l78 -8 -5 -41 c-3 -24 -14 -48 -26 -58 -12 -9 -21 -19 -21
-23 0 -10 90 2 104 14 6 4 29 12 51 16 56 10 107 38 145 81 43 50 60 93 60
153 0 121 -41 207 -125 260 l-45 29 33 6 32 7 -36 19 c-95 50 -158 62 -284 57
-66 -2 -129 -8 -140 -12 -13 -4 -8 4 15 24 39 35 33 38 -25 11z"/>
<path d="M3368 3914 c-27 -14 -57 -54 -41 -54 15 0 52 30 63 51 13 22 13 22
-22 3z"/>
<path d="M5055 3830 c-10 -11 -14 -20 -9 -20 5 0 15 9 22 20 7 11 11 20 9 20
-2 0 -12 -9 -22 -20z"/>
<path d="M5061 3754 c0 -11 3 -14 6 -6 3 7 2 16 -1 19 -3 4 -6 -2 -5 -13z"/>
<path d="M5076 3621 c2 -57 5 -105 7 -107 2 -3 15 0 28 6 22 9 22 10 2 6 -23
-4 -21 -15 -37 159 -2 22 -2 -7 0 -64z"/>
<path d="M4036 3427 c-32 -8 -41 -16 -54 -48 -10 -26 -21 -39 -34 -39 -14 0
-17 -5 -13 -23 4 -12 1 -35 -4 -50 -27 -70 63 10 114 102 20 35 34 65 33 66
-2 1 -20 -3 -42 -8z"/>
<path d="M3922 3375 c0 -16 2 -22 5 -12 2 9 2 23 0 30 -3 6 -5 -1 -5 -18z"/>
<path d="M3170 3363 c0 -31 42 -86 85 -110 42 -23 55 -22 55 7 0 11 -10 20
-27 25 -16 3 -47 27 -70 52 -34 36 -43 42 -43 26z"/>
<path d="M4870 3024 c0 -14 4 -23 10 -19 6 3 10 15 10 26 0 10 -4 19 -10 19
-5 0 -10 -12 -10 -26z"/>
<path d="M4892 2900 c0 -19 2 -27 5 -17 2 9 2 25 0 35 -3 9 -5 1 -5 -18z"/>
<path d="M4811 2683 c1 -4 -1 -16 -6 -26 -12 -28 -1 -29 12 -1 7 14 7 26 2 30
-5 3 -9 2 -8 -3z"/>
<path d="M3713 2302 c32 -48 44 -51 33 -9 -3 12 -19 30 -35 40 l-30 17 32 -48z"/>
<path d="M4567 2328 c-14 -13 -28 -36 -31 -53 -5 -26 -4 -28 7 -11 6 10 23 32
36 48 29 36 22 47 -12 16z"/>
<path d="M3809 2287 c7 -9 17 -15 21 -12 5 3 12 0 16 -6 4 -8 3 -9 -4 -5 -17
10 -15 1 9 -36 12 -18 18 -25 15 -15 -3 10 -6 26 -6 35 0 25 -12 38 -40 47
-22 7 -23 6 -11 -8z"/>
<path d="M3484 2644 c11 -45 53 -111 85 -133 l29 -21 5 26 c4 21 0 26 -24 31
-34 6 -39 12 -60 72 -18 52 -46 72 -35 25z"/>
<path d="M2813 6811 c-93 -18 -116 -34 -111 -77 l3 -30 130 26 c136 26 156 38
118 72 -28 25 -53 26 -140 9z"/>
<path d="M1766 6711 c-112 -71 -116 -76 -116 -133 l0 -48 38 15 c104 44 262
154 262 184 0 11 -55 31 -84 31 -12 0 -57 -22 -100 -49z"/>
<path d="M1330 3189 c0 -102 1 -109 23 -120 12 -7 25 -17 29 -23 4 -6 8 -120
8 -253 l0 -242 -30 -23 c-30 -22 -30 -22 -30 -125 l0 -103 370 0 370 0 2 115
c0 63 1 121 2 128 1 9 -26 12 -106 12 -104 0 -107 -1 -132 -28 -26 -28 -29
-28 -94 -22 -37 4 -69 9 -71 11 -2 2 -6 37 -9 77 -5 86 5 100 49 68 24 -18 42
-21 129 -21 l101 0 -3 153 -3 152 -93 3 c-81 2 -98 0 -128 -18 -18 -12 -38
-19 -43 -16 -16 10 -23 82 -11 125 l11 41 76 0 c68 0 78 -3 99 -25 23 -25 28
-26 124 -23 l100 3 3 130 2 130 -372 1 -373 2 0 -109z"/>
<path d="M6435 3180 l0 -120 65 0 c100 0 110 11 110 119 0 112 -8 121 -106
121 l-69 0 0 -120z m113 4 c2 -50 0 -63 -13 -68 -28 -10 -35 3 -35 63 0 62 5
73 30 69 11 -2 16 -19 18 -64z"/>
<path d="M6647 3268 c9 -35 8 -121 -2 -175 l-6 -33 65 0 c83 0 116 12 109 39
-4 17 -13 21 -44 21 -46 0 -50 13 -10 36 34 20 31 49 -5 58 -36 9 -29 26 11
26 24 0 37 6 45 20 15 28 -14 40 -100 40 l-72 0 9 -32z"/>
<path d="M6880 3280 c-20 -20 -27 -74 -12 -98 5 -7 28 -18 53 -26 l44 -14 -37
-1 c-75 -2 -89 -25 -37 -62 42 -30 106 -30 131 1 10 13 18 38 18 61 0 31 -6
43 -31 61 -30 23 -30 23 -7 28 34 8 37 47 3 60 -44 17 -103 12 -125 -10z"/>
<path d="M7284 3254 c3 -26 6 -80 6 -120 l0 -74 85 0 c67 0 85 3 85 14 0 8 3
22 6 31 6 15 1 16 -50 10 -31 -4 -56 -4 -56 1 0 4 15 20 33 36 l32 28 -33 27
c-18 16 -32 32 -32 37 0 4 25 5 56 1 51 -6 56 -5 50 10 -3 9 -6 23 -6 31 0 11
-19 14 -91 14 l-92 0 7 -46z"/>
<path d="M400 3180 l0 -110 30 0 30 0 0 -275 0 -275 -30 0 -30 0 0 -110 0
-110 200 0 201 0 -3 107 -3 108 -30 5 -30 5 0 85 0 85 69 3 c107 5 106 7 106
-215 l0 -183 170 0 170 0 0 110 0 110 -30 0 -30 0 0 113 0 113 -35 34 -35 34
35 36 35 36 0 125 0 124 -78 78 -77 77 -318 0 -317 0 0 -110z m492 -127 c25
-22 25 -94 -1 -117 -15 -13 -34 -16 -87 -14 l-69 3 -3 73 -3 72 72 0 c53 0 77
-4 91 -17z"/>
<path d="M2170 3180 l0 -110 30 0 30 0 0 -270 0 -270 -30 0 -30 0 0 -110 0
-110 200 0 200 0 0 110 0 110 -30 0 -30 0 0 75 0 75 143 0 142 0 83 81 82 82
0 146 0 146 -78 78 -77 77 -318 0 -317 0 0 -110z m498 -122 c7 -7 12 -37 12
-67 0 -77 -15 -91 -102 -91 l-68 0 0 85 0 85 73 0 c43 0 78 -5 85 -12z"/>
<path d="M7075 3175 l0 -115 71 0 c95 0 104 10 104 117 0 103 -9 113 -106 113
l-69 0 0 -115z m113 3 c-3 -57 -5 -63 -25 -66 -22 -3 -23 0 -23 62 0 64 1 66
25 66 25 0 26 -1 23 -62z"/>
<path d="M6476 2948 c-15 -13 -29 -38 -32 -55 -6 -32 -6 -33 29 -33 19 0 40 7
47 15 15 18 50 20 50 3 0 -7 -24 -35 -53 -63 -64 -60 -77 -82 -77 -129 l0 -36
105 0 105 0 0 36 c0 31 -4 37 -35 50 -19 8 -35 18 -35 22 0 5 16 23 35 42 59
57 56 111 -8 150 -44 27 -99 26 -131 -2z"/>
<path d="M6707 2922 c-26 -27 -27 -33 -27 -128 0 -97 1 -101 28 -127 24 -23
37 -27 86 -27 43 0 66 5 87 21 l29 20 0 114 c0 111 -1 114 -26 134 -21 16 -41
21 -88 21 -55 0 -65 -3 -89 -28z m123 -128 l0 -85 -32 3 -33 3 -3 69 c-4 86 0
96 38 96 l30 0 0 -86z"/>
<path d="M7335 2931 c-68 -31 -115 -96 -115 -156 0 -22 5 -24 53 -27 56 -3 57
-5 41 -76 -4 -22 -2 -23 51 -20 l56 3 4 70 c2 38 0 74 -5 80 -5 6 -10 40 -12
75 -3 75 -11 80 -73 51z m-5 -106 c0 -9 -9 -15 -21 -15 -18 0 -19 2 -9 15 7 8
16 15 21 15 5 0 9 -7 9 -15z"/>
<path d="M6972 2917 c-19 -21 -22 -35 -22 -118 0 -91 1 -96 28 -122 25 -24 36
-27 93 -27 56 0 69 4 87 23 20 21 22 34 22 128 0 132 -6 139 -113 139 -64 0
-76 -3 -95 -23z m128 -117 c0 -65 -3 -82 -16 -87 -33 -12 -49 11 -52 77 -4 80
0 90 38 90 l30 0 0 -80z"/>
<path d="M3037 1732 l-107 -107 0 -445 0 -445 108 -108 107 -107 285 0 285 0
108 108 107 107 0 450 0 450 -103 103 -102 102 -290 0 -290 0 -108 -108z m510
-204 l23 -21 0 -325 c0 -289 -2 -327 -17 -344 -13 -15 -32 -18 -116 -18 -90 0
-103 2 -124 22 l-23 21 0 321 c0 390 -9 366 139 366 83 0 97 -3 118 -22z"/>
<path d="M4405 1823 l-200 -3 -87 -88 -88 -87 0 -448 c0 -401 2 -451 17 -475
9 -15 53 -64 97 -109 l81 -83 281 0 282 0 58 44 c33 24 83 69 113 99 l55 56 8
137 c5 75 7 138 6 139 -2 2 -85 5 -185 7 l-183 4 0 -45 c-1 -65 -16 -123 -37
-139 -12 -9 -45 -12 -107 -10 -84 3 -90 4 -110 31 -20 27 -21 43 -24 275 -3
239 2 356 16 379 4 6 57 14 124 18 l117 7 5 -23 c3 -13 8 -58 13 -99 l8 -75
175 0 175 0 3 117 c3 144 -7 170 -112 273 -93 92 -123 106 -223 103 -43 -2
-168 -4 -278 -5z"/>
<path d="M5120 1691 l0 -138 40 -27 40 -26 0 -334 0 -334 -37 -19 -38 -18 -3
-132 -3 -133 256 0 256 0 -5 43 c-3 23 -11 87 -17 142 -6 55 -17 107 -25 115
-27 31 -34 111 -34 403 l0 298 33 -6 34 -7 6 93 c4 51 7 121 7 156 l0 63 -255
0 -255 0 0 -139z"/>
<path d="M5842 1727 l-102 -102 0 -450 0 -450 103 -103 102 -102 270 0 270 0
108 112 c60 62 113 123 118 136 5 13 9 210 9 438 l0 415 -102 105 -101 104
-286 0 -286 0 -103 -103z m507 -216 c20 -28 21 -42 21 -339 0 -383 8 -362
-138 -362 -85 0 -98 3 -119 22 l-23 21 0 321 c0 391 -10 366 141 366 96 0 98
0 118 -29z"/>
<path d="M1501 1709 l-103 -112 4 -161 c6 -188 25 -261 76 -283 33 -15 94 -69
109 -98 10 -16 26 -21 100 -27 48 -3 143 -7 210 -7 67 -1 124 -5 127 -10 4 -5
9 -42 12 -83 6 -64 4 -75 -13 -90 -41 -37 -206 -35 -244 3 -12 12 -19 33 -19
57 0 79 -3 82 -89 82 -42 0 -120 -3 -174 -7 l-98 -6 6 -91 c10 -141 26 -179
108 -259 39 -38 81 -73 94 -78 14 -5 151 -9 307 -9 l282 0 76 70 c100 92 109
115 117 303 4 82 5 163 3 180 -3 21 -29 55 -84 113 -112 117 -134 125 -362
133 l-179 6 2 90 c1 49 5 93 7 97 6 10 93 10 185 2 l67 -7 4 -74 c3 -40 7 -75
9 -77 2 -3 82 -2 177 1 l172 6 0 113 0 114 -84 88 c-46 49 -87 98 -90 110 -7
22 -8 22 -310 22 l-302 0 -103 -111z"/>
<path d="M2497 1812 c-7 -13 -2 -260 5 -267 4 -4 22 -10 40 -14 l33 -7 3 -102
3 -103 103 97 c57 53 109 109 116 123 10 22 17 258 8 266 -8 6 -308 13 -311 7z"/>
<path d="M2724 140 l1 -110 29 -10 c16 -5 37 -10 48 -10 15 0 17 5 11 28 -5
15 -7 69 -6 120 l1 92 -42 0 -43 0 1 -110z"/>
<path d="M2865 130 l0 -121 89 3 89 3 2 29 c1 28 1 28 -52 24 l-52 -5 6 94 6
93 -44 0 -44 0 0 -120z"/>
<path d="M3085 213 c11 -51 11 -120 1 -165 l-8 -38 52 0 52 0 -6 45 c-7 44 -6
45 19 45 22 0 26 -4 20 -17 -3 -10 -9 -30 -12 -45 -5 -28 -5 -28 43 -28 l49 0
0 120 0 120 -49 0 c-48 0 -48 0 -43 -27 3 -16 9 -36 12 -45 6 -14 2 -18 -20
-18 -25 0 -26 1 -19 45 l6 45 -52 0 -53 0 8 -37z"/>
<path d="M3400 208 c0 -27 -11 -67 -30 -106 -41 -86 -40 -92 15 -92 45 0 45 0
45 35 0 34 1 35 41 35 l41 0 -6 -35 -7 -35 51 0 c59 0 59 -1 12 100 -16 35
-25 71 -24 98 l2 42 -70 0 -70 0 0 -42z m80 -67 c0 -5 -7 -11 -14 -14 -10 -4
-13 -1 -9 9 6 15 23 19 23 5z"/>
<path d="M3762 234 c-24 -16 -29 -55 -12 -98 8 -21 18 -26 60 -32 40 -5 50
-10 50 -25 0 -23 -10 -24 -36 -4 -22 17 -84 20 -84 4 0 -15 21 -53 34 -61 6
-4 37 -8 69 -8 69 0 97 21 97 73 0 42 -27 68 -76 72 -40 4 -60 17 -50 34 10
16 31 14 46 -4 7 -8 28 -15 46 -15 27 0 34 4 34 20 0 10 -10 28 -22 40 -27 25
-122 28 -156 4z"/>
<path d="M4002 227 c-19 -20 -22 -35 -22 -103 0 -71 3 -83 23 -102 18 -17 36
-22 78 -22 82 0 99 22 99 126 0 71 -3 83 -23 102 -34 32 -125 31 -155 -1z
m106 -99 l3 -68 -31 0 -30 0 0 63 c0 70 4 79 35 75 17 -3 20 -11 23 -70z"/>
<path d="M4223 158 c1 -51 -1 -105 -6 -121 l-7 -27 95 0 95 0 0 34 0 33 -42
-8 c-24 -4 -47 -8 -52 -9 -5 0 -6 41 -2 95 l6 95 -44 0 -44 0 1 -92z"/>
<path d="M4400 220 c0 -26 3 -30 29 -30 53 0 58 -19 35 -147 l-6 -33 51 0 c57
0 59 4 40 74 -6 21 -8 54 -4 73 6 32 9 34 38 31 30 -3 32 -1 35 30 l3 32 -110
0 -111 0 0 -30z"/>
<path d="M4665 130 l0 -120 87 0 88 0 0 31 c0 31 0 31 -47 27 -38 -2 -48 0
-48 12 0 10 10 15 30 15 27 0 30 3 33 37 l3 37 -36 -6 c-32 -5 -37 -4 -33 13
3 15 11 18 51 15 46 -2 47 -2 47 28 l0 31 -88 0 -87 0 0 -120z"/>
<path d="M4886 213 c5 -21 8 -58 8 -83 0 -25 -3 -62 -8 -82 l-8 -38 52 0 53 0
-8 43 c-11 54 -11 91 -1 150 l8 47 -52 0 -52 0 8 -37z"/>
<path d="M5030 220 c0 -16 3 -30 8 -30 4 0 7 -29 7 -65 0 -36 -3 -65 -7 -65
-5 0 -8 -13 -8 -30 0 -29 1 -30 50 -30 49 0 50 1 50 30 0 17 -4 30 -10 30 -5
0 -10 9 -10 20 0 15 7 20 25 20 23 0 25 -3 25 -50 l0 -50 41 0 42 0 -7 52 c-4
29 -12 58 -17 64 -7 8 -6 14 1 19 5 3 10 21 10 40 0 54 -36 75 -126 75 l-74 0
0 -30z m128 -47 c-2 -10 -12 -18 -23 -18 -11 0 -21 8 -23 18 -3 13 3 17 23 17
20 0 26 -4 23 -17z"/>
<path d="M5338 208 c-3 -24 -19 -75 -37 -115 -17 -39 -31 -74 -31 -77 0 -3 23
-6 51 -6 l51 0 -6 35 -7 35 41 0 c39 0 40 -1 40 -35 0 -33 2 -35 33 -35 61 0
64 11 29 88 -20 42 -32 85 -32 110 l0 42 -64 0 -63 0 -5 -42z m72 -68 c0 -5
-4 -10 -10 -10 -5 0 -10 5 -10 10 0 6 5 10 10 10 6 0 10 -4 10 -10z"/>
</g>
</svg>
